# xmcd
#
# Track frame offsets: 
#        150
#        19373
#        36416
#        51757
#        67530
#        90976
#        109475
#        129827
#        151999
#        174079
#        188191
#        203682
#
# Disc length: 3076 seconds
#
# Revision: 0
# Processed by: cddbd v1.5.2PL0 Copyright (c) Steve Scherf et al.
# Submitted via: ExactAudioCopy v1.0b3
#
DISCID=910c020c
DTITLE=Various Artist - Electro Blues Volume One
DYEAR=2013
DGENRE=Electronic
TTITLE0=Son Of Dave (feat. Martina Topley Bird) - Devil Take My Soul
TTITLE1=Swing Republic - Cryin' At Daybreak (feat. Howlin' Wolf)
TTITLE2=Skeewiff - Brutha Noah (feat. The Golden Gate Jubilee Quartet)
TTITLE3=Moby - Honey
TTITLE4=John Mayall - The Laws Must Change (The Empire Fantastic Remix
TTITLE4=)
TTITLE5=Monetrik - Blues Soup
TTITLE6=Lemon - Suzie Q
TTITLE7=Grant Lazlo - Alabama (feat. JB Lenoir)
TTITLE8=Ecklectic Mick - Boogie Children
TTITLE9=Stereo Express - Shadoorack
TTITLE10=Swing Republic with John Lee Hooker - Goodbye Baby
TTITLE11=4Peace - Harmonica Funk
EXTD=
EXTT0=
EXTT1=
EXTT2=
EXTT3=
EXTT4=
EXTT5=
EXTT6=
EXTT7=
EXTT8=
EXTT9=
EXTT10=
EXTT11=
PLAYORDER=
